<?xml version="1.0" encoding="UTF-8" standalone="no"?>
<!-- Created with Inkscape (http://www.inkscape.org/) -->

<svg
   version="1.1"
   id="svg2"
   width="666.66663"
   height="496.81198"
   viewBox="0 0 666.66663 496.81198"
   xmlns="http://www.w3.org/2000/svg"
   xmlns:svg="http://www.w3.org/2000/svg">
  <defs
     id="defs6">
    <clipPath
       clipPathUnits="userSpaceOnUse"
       id="clipPath58">
      <path
         d="m 1501.27,1189.93 h -392.51 l 464,2149.72 h 507.5 l -35.6,-164.91 h -2.54 c -2.37,0 -4.64,-0.94 -6.31,-2.62 l -520.66,-520.65 c -1.57,-1.58 -2.5,-3.69 -2.6,-5.91 -20.36,-448.57 -24.12,-936.85 -11.28,-1455.63"
         id="path56" />
    </clipPath>
  </defs>
  <g
     id="g10"
     transform="matrix(1.3333333,0,0,-1.3333333,0,496.81199)">
    <path
       d="M 500,44.9129 H 0 v 0.25 h 500 v -0.25"
       style="fill:#e7e8e5;fill-opacity:1;fill-rule:nonzero;stroke:none;stroke-width:0.1"
       id="path14" />
    <path
       d="m 43.9152,372.359 c -3.0101,0 -5.4582,-2.449 -5.4582,-5.457 V 95.4699 c 0,-3.0097 2.4481,-5.4578 5.4582,-5.4578 H 237.014 c 3.008,0 5.457,2.4481 5.457,5.4578 V 366.902 c 0,3.008 -2.449,5.457 -5.457,5.457 H 43.9152 M 237.014,89.7621 H 43.9152 c -3.1476,0 -5.7082,2.5598 -5.7082,5.7078 V 366.902 c 0,3.146 2.5606,5.707 5.7082,5.707 H 237.014 c 3.146,0 5.707,-2.561 5.707,-5.707 V 95.4699 c 0,-3.148 -2.561,-5.7078 -5.707,-5.7078"
       style="fill:#e7e8e5;fill-opacity:1;fill-rule:nonzero;stroke:none;stroke-width:0.1"
       id="path16" />
    <path
       d="m 260.212,372.359 c -3.009,0 -5.457,-2.449 -5.457,-5.457 V 95.4699 c 0,-3.0097 2.448,-5.4578 5.457,-5.4578 h 193.099 c 3.009,0 5.458,2.4481 5.458,5.4578 V 366.902 c 0,3.008 -2.449,5.457 -5.458,5.457 H 260.212 M 453.311,89.7621 H 260.212 c -3.147,0 -5.707,2.5598 -5.707,5.7078 V 366.902 c 0,3.146 2.56,5.707 5.707,5.707 h 193.099 c 3.147,0 5.708,-2.561 5.708,-5.707 V 95.4699 c 0,-3.148 -2.561,-5.7078 -5.708,-5.7078"
       style="fill:#e7e8e5;fill-opacity:1;fill-rule:nonzero;stroke:none;stroke-width:0.1"
       id="path18" />
    <path
       d="M 77.2762,35.3898 H 51.2789 v 0.25 h 25.9973 v -0.25"
       style="fill:#e7e8e5;fill-opacity:1;fill-rule:nonzero;stroke:none;stroke-width:0.1"
       id="path20" />
    <path
       d="m 190.18,38.1039 h -45.027 v 0.25 h 45.027 v -0.25"
       style="fill:#e7e8e5;fill-opacity:1;fill-rule:nonzero;stroke:none;stroke-width:0.1"
       id="path22" />
    <path
       d="M 139.069,26.1039 H 78.277 v 0.25 h 60.792 v -0.25"
       style="fill:#e7e8e5;fill-opacity:1;fill-rule:nonzero;stroke:none;stroke-width:0.1"
       id="path24" />
    <path
       d="m 448.721,27.784 h -19.234 v 0.25 h 19.234 v -0.25"
       style="fill:#e7e8e5;fill-opacity:1;fill-rule:nonzero;stroke:none;stroke-width:0.1"
       id="path26" />
    <path
       d="m 420.583,27.784 h -55.292 v 0.25 h 55.292 v -0.25"
       style="fill:#e7e8e5;fill-opacity:1;fill-rule:nonzero;stroke:none;stroke-width:0.1"
       id="path28" />
    <path
       d="m 331.513,32.0059 h -74.466 v 0.25 h 74.466 v -0.25"
       style="fill:#e7e8e5;fill-opacity:1;fill-rule:nonzero;stroke:none;stroke-width:0.1"
       id="path30" />
    <path
       d="M 267.538,94.1109 C 266.506,80.491 254.629,69.452 241.009,69.452 c -13.62,0 -23.823,11.039 -22.791,24.6589 l 4.449,58.7011 c 1.032,13.62 12.91,24.669 26.529,24.669 6.811,0 12.771,-2.759 16.893,-7.23 4.122,-4.459 6.414,-10.629 5.898,-17.439 L 267.538,94.1109 M 190.832,212.122 178.178,45.1609 h 121.98 l 12.654,166.9611 h -121.98"
       style="fill:#e2e2e0;fill-opacity:1;fill-rule:nonzero;stroke:none;stroke-width:0.1"
       id="path32" />
    <path
       d="m 338.875,45.1629 h -177.87 l 1.025,10.9543 h 177.869 l -1.024,-10.9543"
       style="fill:#e2e2e0;fill-opacity:1;fill-rule:nonzero;stroke:none;stroke-width:0.1"
       id="path34" />
    <path
       d="m 407.225,107.155 h 15.75 c 0.9,0 1.599,0.737 1.554,1.637 l -0.056,1.117 c -0.045,0.901 -0.818,1.637 -1.718,1.637 h -15.75 c -0.9,0 -1.599,-0.736 -1.554,-1.637 l 0.056,-1.117 c 0.045,-0.9 0.818,-1.637 1.718,-1.637"
       style="fill:#dadbd8;fill-opacity:1;fill-rule:nonzero;stroke:none;stroke-width:0.1"
       id="path36" />
    <path
       d="m 380.886,107.155 h 15.751 c 0.9,0 1.599,0.737 1.554,1.637 l -0.056,1.117 c -0.045,0.901 -0.819,1.637 -1.718,1.637 h -15.75 c -0.9,0 -1.6,-0.736 -1.555,-1.637 l 0.056,-1.117 c 0.046,-0.9 0.819,-1.637 1.718,-1.637"
       style="fill:#dadbd8;fill-opacity:1;fill-rule:nonzero;stroke:none;stroke-width:0.1"
       id="path38" />
    <path
       d="M 435.225,108.394 H 67.6008 c -4.2399,0 -7.8492,3.436 -8.0613,7.676 L 48.4727,336.889 c -0.2125,4.239 3.0523,7.677 7.2921,7.677 H 423.39 c 4.239,0 7.848,-3.438 8.061,-7.677 L 442.518,116.07 c 0.212,-4.24 -3.053,-7.676 -7.293,-7.676"
       style="fill:#dadbd8;fill-opacity:1;fill-rule:nonzero;stroke:none;stroke-width:0.1"
       id="path40" />
    <path
       d="M 439.73,108.394 H 72.1055 c -4.2399,0 -7.8489,3.436 -8.0614,7.676 L 52.9773,336.889 c -0.2121,4.239 3.0524,7.677 7.2922,7.677 H 427.894 c 4.24,0 7.849,-3.438 8.062,-7.677 L 447.022,116.07 c 0.213,-4.24 -3.052,-7.676 -7.292,-7.676"
       style="fill:#e2e2e0;fill-opacity:1;fill-rule:nonzero;stroke:none;stroke-width:0.1"
       id="path42" />
    <path
       d="m 74.2563,123.804 -10.2915,205.35 c -0.1332,2.657 1.9125,4.811 4.5696,4.811 H 420.692 c 2.657,0 4.918,-2.154 5.051,-4.811 l 10.292,-205.35 c 0.133,-2.657 -1.913,-4.811 -4.57,-4.811 H 79.3078 c -2.6566,0 -4.9187,2.154 -5.0515,4.811"
       style="fill:#f3f2f1;fill-opacity:1;fill-rule:nonzero;stroke:none;stroke-width:0.1"
       id="path44" />
    <path
       d="m 85.6629,323.459 c 0.1176,-2.35 -1.6922,-4.256 -4.043,-4.256 -2.3504,0 -4.3511,1.906 -4.4691,4.256 -0.1176,2.351 1.6922,4.256 4.043,4.256 2.35,0 4.3511,-1.905 4.4691,-4.256"
       style="fill:#ffffff;fill-opacity:1;fill-rule:nonzero;stroke:none;stroke-width:0.1"
       id="path46" />
    <path
       d="m 104.935,323.459 c 0.118,-2.35 -1.692,-4.256 -4.043,-4.256 -2.3502,0 -4.3514,1.906 -4.469,4.256 -0.1179,2.351 1.6922,4.256 4.043,4.256 2.35,0 4.351,-1.905 4.469,-4.256"
       style="fill:#ffffff;fill-opacity:1;fill-rule:nonzero;stroke:none;stroke-width:0.1"
       id="path48" />
    <path
       d="m 124.207,323.459 c 0.118,-2.35 -1.692,-4.256 -4.043,-4.256 -2.35,0 -4.351,1.906 -4.469,4.256 -0.118,2.351 1.692,4.256 4.043,4.256 2.35,0 4.351,-1.905 4.469,-4.256"
       style="fill:#ffffff;fill-opacity:1;fill-rule:nonzero;stroke:none;stroke-width:0.1"
       id="path50" />
    <g
       id="g52"
       transform="scale(0.1)">
      <g
         id="g54"
         clip-path="url(#clipPath58)">
        <path
           d="m 1108.76,1189.93 h 971.5 v 2149.72 h -971.5 z"
           style="fill:#fbfbfa;fill-opacity:1;fill-rule:nonzero;stroke:none"
           id="path60" />
      </g>
    </g>
    <path
       d="m 342.129,118.993 h -12.845 l 46.4,214.972 h 12.845 l -46.4,-214.972"
       style="fill:#fbfbfa;fill-opacity:1;fill-rule:nonzero;stroke:none;stroke-width:0.1"
       id="path62" />
    <path
       d="m 287.751,317.474 h -72.002 l 3.559,16.491 h 72.003 l -3.56,-16.491"
       style="fill:#fbfbfa;fill-opacity:1;fill-rule:nonzero;stroke:none;stroke-width:0.1"
       id="path64" />
    <path
       d="M 443.889,11.323 C 443.889,5.06914 357.083,0 250,0 142.918,0 56.1109,5.06914 56.1109,11.323 c 0,6.254 86.8071,11.3239 193.8891,11.3239 107.083,0 193.889,-5.0699 193.889,-11.3239"
       style="fill:#f3f2f1;fill-opacity:1;fill-rule:nonzero;stroke:none;stroke-width:0.1"
       id="path66" />
    <path
       d="m 360.602,164.508 c -0.122,0 -0.244,0.005 -0.365,0.015 -26.633,2.179 -44.967,24.947 -45.735,25.915 -1.533,1.933 -1.208,4.743 0.725,6.275 1.932,1.534 4.739,1.21 6.272,-0.722 0.215,-0.267 15.903,-19.609 37.626,-22.372 7.046,6.991 12.979,25.485 12.331,31.077 l -0.015,0.157 c -0.145,1.8 -0.481,7.963 1.289,11.644 1.07,2.224 3.736,3.156 5.962,2.089 2.223,-1.069 3.159,-3.738 2.089,-5.962 -0.442,-0.919 -0.649,-4.237 -0.44,-6.992 0.994,-9.202 -6.983,-32.423 -17.003,-40.188 -0.786,-0.609 -1.749,-0.936 -2.736,-0.936"
       style="fill:#17282f;fill-opacity:1;fill-rule:nonzero;stroke:none;stroke-width:0.1"
       id="path68" />
    <path
       d="m 148.824,188.74 c -7.928,0 -30.377,1.947 -48.565,22.278 -1.4145,1.582 -1.5211,3.94 -0.256,5.643 7.216,9.707 19.96,32.641 21.946,40.114 -0.818,1.417 -2.304,3.465 -4.142,4.329 -1.425,0.669 -2.392,2.038 -2.547,3.603 l -0.723,7.323 c -0.243,2.456 1.551,4.642 4.005,4.885 2.453,0.243 4.642,-1.55 4.885,-4.006 l 0.503,-5.091 c 4.365,-3.129 6.539,-8.014 6.805,-8.643 0.303,-0.713 0.415,-1.491 0.326,-2.26 -0.921,-7.937 -13.791,-30.899 -21.71,-42.511 18.487,-18.428 40.586,-16.748 41.559,-16.662 2.442,0.199 4.622,-1.595 4.843,-4.049 0.221,-2.452 -1.577,-4.62 -4.028,-4.847 -0.207,-0.02 -1.233,-0.106 -2.901,-0.106"
       style="fill:#17282f;fill-opacity:1;fill-rule:nonzero;stroke:none;stroke-width:0.1"
       id="path70" />
    <path
       d="m 292.865,11.468 h -11.969 c -1.397,0 -2.712,0.6531 -3.557,1.7652 -0.845,1.1117 -1.121,2.5539 -0.747,3.8996 3.129,11.2383 4.665,20.3844 5.815,34.7063 -4.236,19.9488 -8.228,38.2121 -8.268,38.3961 -0.528,2.4109 0.999,4.791 3.409,5.3179 2.414,0.525 4.791,-1 5.317,-3.409 0.041,-0.1871 4.123,-18.8621 8.415,-39.0839 0.09,-0.4204 0.117,-0.8512 0.084,-1.2793 -1.011,-12.8579 -2.31,-21.752 -4.676,-31.3797 h 6.177 c 2.467,0 4.467,-2 4.467,-4.466 0,-2.4672 -2,-4.4672 -4.467,-4.4672"
       style="fill:#17282f;fill-opacity:1;fill-rule:nonzero;stroke:none;stroke-width:0.1"
       id="path72" />
    <path
       d="m 200.324,11.468 h -6.76 c -1.293,0 -2.522,0.559 -3.37,1.5351 -0.848,0.975 -1.233,2.2699 -1.054,3.5489 1.145,8.2031 7.039,23.1351 13.296,38.1429 2.231,19.8 4.057,36.8 4.075,36.9711 0.263,2.4531 2.46,4.2379 4.918,3.9649 2.452,-0.2637 4.228,-2.4649 3.965,-4.918 -0.019,-0.1731 -1.886,-17.557 -4.153,-37.6508 -0.047,-0.4191 -0.154,-0.8301 -0.316,-1.2199 -4.437,-10.6281 -9.49,-23.1461 -11.802,-31.441 h 1.201 c 2.467,0 4.467,-2 4.467,-4.466 0,-2.4672 -2,-4.4672 -4.467,-4.4672"
       style="fill:#17282f;fill-opacity:1;fill-rule:nonzero;stroke:none;stroke-width:0.1"
       id="path74" />
    <path
       d="m 204.212,316.581 -52.065,-52.065 c -2.62,-57.715 -2.405,-118.331 0,-181.1871 h 172.162 c -3.408,81.1071 -3.732,159.1771 0,233.2521 H 204.212"
       style="fill:#ffffff;fill-opacity:1;fill-rule:nonzero;stroke:none;stroke-width:0.1"
       id="path76" />
    <path
       d="M 153.006,84.2219 H 323.379 C 319.836,169.08 319.834,244.816 323.371,315.689 H 204.582 l -51.56,-51.56 C 150.554,209.496 150.549,148.975 153.006,84.2219 M 324.31,82.4371 H 152.146 c -0.479,0 -0.873,0.3789 -0.892,0.8578 -2.496,65.2621 -2.496,126.2471 0.001,181.2611 0.01,0.222 0.103,0.433 0.26,0.591 l 52.066,52.065 c 0.167,0.168 0.394,0.262 0.631,0.262 H 324.31 c 0.244,0 0.478,-0.101 0.646,-0.278 0.169,-0.177 0.257,-0.416 0.245,-0.66 -3.595,-71.345 -3.595,-147.615 0,-233.17 0.011,-0.2418 -0.079,-0.4789 -0.247,-0.6551 -0.169,-0.175 -0.401,-0.2738 -0.644,-0.2738"
       style="fill:#17282f;fill-opacity:1;fill-rule:nonzero;stroke:none;stroke-width:0.1"
       id="path78" />
    <path
       d="m 202.854,140.157 1.876,0.164 c 0.125,-0.755 0.363,-1.375 0.712,-1.858 0.349,-0.483 0.874,-0.875 1.575,-1.174 0.7,-0.298 1.48,-0.447 2.338,-0.447 0.762,0 1.429,0.113 2.001,0.339 0.573,0.226 0.993,0.538 1.259,0.931 0.265,0.396 0.387,0.826 0.365,1.293 -0.022,0.474 -0.18,0.887 -0.471,1.241 -0.292,0.353 -0.759,0.651 -1.402,0.89 -0.413,0.158 -1.32,0.404 -2.723,0.738 -1.402,0.332 -2.388,0.646 -2.958,0.941 -0.739,0.377 -1.299,0.846 -1.679,1.405 -0.38,0.56 -0.587,1.186 -0.62,1.88 -0.037,0.762 0.145,1.474 0.546,2.136 0.401,0.662 1.008,1.165 1.823,1.508 0.814,0.343 1.729,0.515 2.745,0.515 1.118,0 2.114,-0.18 2.986,-0.541 0.871,-0.359 1.554,-0.89 2.047,-1.591 0.494,-0.7 0.779,-1.492 0.855,-2.378 l -1.908,-0.144 c -0.148,0.954 -0.531,1.675 -1.148,2.163 -0.617,0.486 -1.506,0.731 -2.666,0.731 -1.208,0 -2.077,-0.222 -2.609,-0.665 -0.531,-0.443 -0.782,-0.976 -0.752,-1.601 0.026,-0.542 0.243,-0.987 0.651,-1.338 0.401,-0.351 1.422,-0.709 3.063,-1.076 1.641,-0.367 2.77,-0.689 3.387,-0.963 0.898,-0.405 1.571,-0.918 2.02,-1.539 0.448,-0.621 0.692,-1.337 0.73,-2.147 0.039,-0.802 -0.155,-1.559 -0.581,-2.271 -0.426,-0.71 -1.06,-1.262 -1.902,-1.657 -0.843,-0.395 -1.803,-0.592 -2.881,-0.592 -1.366,0 -2.52,0.199 -3.462,0.597 -0.942,0.398 -1.695,0.997 -2.258,1.796 -0.564,0.8 -0.883,1.705 -0.959,2.714"
       style="fill:#17282f;fill-opacity:1;fill-rule:nonzero;stroke:none;stroke-width:0.1"
       id="path80" />
    <path
       d="m 218.682,141.825 h 6.105 c -0.126,0.919 -0.393,1.61 -0.799,2.07 -0.625,0.713 -1.407,1.07 -2.347,1.07 -0.852,0 -1.554,-0.284 -2.106,-0.855 -0.553,-0.569 -0.837,-1.331 -0.853,-2.285 z m 6.228,-2.996 1.926,-0.237 c -0.248,-1.119 -0.766,-1.987 -1.553,-2.605 -0.787,-0.618 -1.816,-0.926 -3.086,-0.926 -1.599,0 -2.891,0.492 -3.875,1.476 -0.984,0.986 -1.519,2.366 -1.604,4.145 -0.088,1.84 0.317,3.267 1.216,4.283 0.899,1.016 2.103,1.524 3.613,1.524 1.462,0 2.681,-0.498 3.655,-1.493 0.974,-0.995 1.504,-2.395 1.59,-4.201 0.006,-0.11 0.01,-0.274 0.014,-0.494 h -8.154 c 0.125,-1.201 0.509,-2.121 1.151,-2.759 0.641,-0.639 1.419,-0.958 2.331,-0.958 0.68,0 1.251,0.179 1.715,0.536 0.463,0.357 0.817,0.926 1.061,1.709"
       style="fill:#17282f;fill-opacity:1;fill-rule:nonzero;stroke:none;stroke-width:0.1"
       id="path82" />
    <path
       d="m 229.3,135.308 -0.523,10.934 h 1.668 l 0.079,-1.658 c 0.389,0.776 0.757,1.287 1.105,1.534 0.349,0.247 0.74,0.371 1.172,0.371 0.625,0 1.269,-0.199 1.934,-0.597 l -0.557,-1.72 c -0.466,0.269 -0.925,0.402 -1.378,0.402 -0.405,0 -0.763,-0.122 -1.074,-0.366 -0.311,-0.243 -0.524,-0.581 -0.641,-1.015 -0.174,-0.658 -0.243,-1.378 -0.206,-2.161 l 0.274,-5.724 H 229.3"
       style="fill:#17282f;fill-opacity:1;fill-rule:nonzero;stroke:none;stroke-width:0.1"
       id="path84" />
    <path
       d="m 239.38,135.308 -4.683,10.934 h 1.956 l 2.661,-6.548 c 0.288,-0.708 0.557,-1.442 0.806,-2.204 0.137,0.576 0.334,1.271 0.59,2.08 l 2.111,6.672 h 1.905 l -3.616,-10.934 h -1.73"
       style="fill:#17282f;fill-opacity:1;fill-rule:nonzero;stroke:none;stroke-width:0.1"
       id="path86" />
    <path
       d="m 246.896,135.308 -0.523,10.934 h 1.853 l 0.524,-10.934 z m -0.62,12.963 -0.102,2.13 h 1.853 l 0.102,-2.13 h -1.853"
       style="fill:#17282f;fill-opacity:1;fill-rule:nonzero;stroke:none;stroke-width:0.1"
       id="path88" />
    <path
       d="m 258.515,139.313 1.834,-0.238 c -0.14,-1.255 -0.602,-2.239 -1.388,-2.949 -0.787,-0.71 -1.777,-1.065 -2.972,-1.065 -1.496,0 -2.722,0.488 -3.678,1.466 -0.957,0.979 -1.479,2.38 -1.566,4.206 -0.057,1.181 0.089,2.214 0.439,3.1 0.348,0.886 0.913,1.549 1.69,1.991 0.779,0.444 1.639,0.665 2.579,0.665 1.188,0 2.173,-0.3 2.956,-0.9 0.784,-0.602 1.31,-1.455 1.575,-2.559 l -1.789,-0.278 c -0.207,0.733 -0.537,1.286 -0.99,1.657 -0.454,0.371 -0.989,0.556 -1.607,0.556 -0.934,0 -1.676,-0.334 -2.228,-1.003 -0.552,-0.67 -0.792,-1.729 -0.723,-3.178 0.071,-1.468 0.403,-2.536 0.998,-3.201 0.594,-0.666 1.345,-0.999 2.251,-0.999 0.728,0 1.325,0.223 1.791,0.669 0.465,0.446 0.742,1.133 0.828,2.06"
       style="fill:#17282f;fill-opacity:1;fill-rule:nonzero;stroke:none;stroke-width:0.1"
       id="path90" />
    <path
       d="m 263.203,141.825 h 6.106 c -0.127,0.919 -0.393,1.61 -0.799,2.07 -0.625,0.713 -1.407,1.07 -2.348,1.07 -0.851,0 -1.553,-0.284 -2.105,-0.855 -0.554,-0.569 -0.838,-1.331 -0.854,-2.285 z m 6.229,-2.996 1.926,-0.237 c -0.249,-1.119 -0.766,-1.987 -1.553,-2.605 -0.787,-0.618 -1.817,-0.926 -3.086,-0.926 -1.6,0 -2.892,0.492 -3.875,1.476 -0.985,0.986 -1.519,2.366 -1.604,4.145 -0.089,1.84 0.317,3.267 1.215,4.283 0.899,1.016 2.104,1.524 3.613,1.524 1.462,0 2.681,-0.498 3.656,-1.493 0.973,-0.995 1.504,-2.395 1.59,-4.201 0.005,-0.11 0.01,-0.274 0.013,-0.494 h -8.154 c 0.126,-1.201 0.51,-2.121 1.151,-2.759 0.642,-0.639 1.419,-0.958 2.331,-0.958 0.68,0 1.252,0.179 1.715,0.536 0.464,0.357 0.818,0.926 1.062,1.709"
       style="fill:#17282f;fill-opacity:1;fill-rule:nonzero;stroke:none;stroke-width:0.1"
       id="path92" />
    <path
       d="m 193.516,114.221 -0.077,1.606 c -0.792,-1.235 -1.919,-1.852 -3.381,-1.852 -0.646,0 -1.254,0.122 -1.825,0.37 -0.571,0.247 -1.002,0.557 -1.29,0.931 -0.29,0.374 -0.502,0.832 -0.638,1.374 -0.093,0.365 -0.158,0.941 -0.196,1.73 l -0.324,6.776 h 1.853 l 0.291,-6.064 c 0.046,-0.969 0.114,-1.62 0.206,-1.957 0.14,-0.488 0.406,-0.87 0.797,-1.149 0.39,-0.277 0.864,-0.416 1.42,-0.416 0.556,0 1.071,0.143 1.544,0.427 0.474,0.285 0.801,0.672 0.979,1.164 0.18,0.49 0.247,1.202 0.202,2.136 l -0.281,5.859 h 1.854 l 0.523,-10.935 h -1.657"
       style="fill:#17282f;fill-opacity:1;fill-rule:nonzero;stroke:none;stroke-width:0.1"
       id="path94" />
    <path
       d="m 198.077,114.221 -0.523,10.935 h 1.668 l 0.074,-1.555 c 0.746,1.201 1.877,1.801 3.394,1.801 0.659,0 1.27,-0.118 1.834,-0.354 0.564,-0.237 0.992,-0.548 1.286,-0.932 0.293,-0.384 0.507,-0.841 0.642,-1.37 0.085,-0.343 0.148,-0.944 0.189,-1.802 l 0.322,-6.723 h -1.854 l -0.318,6.652 c -0.036,0.755 -0.135,1.319 -0.297,1.693 -0.162,0.375 -0.432,0.673 -0.81,0.896 -0.378,0.223 -0.814,0.335 -1.309,0.335 -0.789,0 -1.458,-0.251 -2.007,-0.752 -0.55,-0.501 -0.791,-1.451 -0.723,-2.853 l 0.285,-5.971 h -1.853"
       style="fill:#17282f;fill-opacity:1;fill-rule:nonzero;stroke:none;stroke-width:0.1"
       id="path96" />
    <path
       d="m 216.523,119.709 c -0.66,-0.275 -1.658,-0.509 -2.994,-0.7 -0.756,-0.11 -1.289,-0.234 -1.599,-0.371 -0.308,-0.138 -0.543,-0.337 -0.702,-0.602 -0.159,-0.264 -0.23,-0.557 -0.215,-0.881 0.024,-0.494 0.23,-0.906 0.62,-1.235 0.39,-0.329 0.946,-0.494 1.666,-0.494 0.714,0 1.342,0.156 1.883,0.468 0.54,0.312 0.929,0.739 1.163,1.282 0.179,0.419 0.25,1.037 0.211,1.853 z m 0.352,-4.139 c -0.658,-0.584 -1.299,-0.996 -1.922,-1.236 -0.624,-0.24 -1.3,-0.359 -2.027,-0.359 -1.201,0 -2.138,0.292 -2.812,0.88 -0.674,0.586 -1.032,1.336 -1.076,2.25 -0.025,0.534 0.073,1.024 0.296,1.466 0.222,0.444 0.524,0.798 0.906,1.066 0.382,0.268 0.817,0.47 1.305,0.607 0.359,0.096 0.903,0.189 1.634,0.279 1.488,0.178 2.579,0.39 3.275,0.637 -0.006,0.255 -0.01,0.416 -0.014,0.485 -0.036,0.754 -0.236,1.287 -0.601,1.596 -0.494,0.418 -1.208,0.627 -2.141,0.627 -0.872,0 -1.508,-0.152 -1.908,-0.457 -0.401,-0.306 -0.683,-0.846 -0.845,-1.623 l -1.823,0.248 c 0.127,0.776 0.369,1.403 0.723,1.879 0.355,0.477 0.883,0.844 1.585,1.102 0.701,0.257 1.522,0.385 2.463,0.385 0.933,0 1.697,-0.109 2.291,-0.329 0.594,-0.219 1.036,-0.496 1.326,-0.828 0.291,-0.334 0.503,-0.755 0.637,-1.262 0.077,-0.316 0.135,-0.885 0.175,-1.709 l 0.118,-2.471 c 0.082,-1.723 0.174,-2.813 0.275,-3.269 0.1,-0.457 0.278,-0.894 0.531,-1.313 h -1.935 c -0.211,0.385 -0.356,0.834 -0.436,1.349"
       style="fill:#17282f;fill-opacity:1;fill-rule:nonzero;stroke:none;stroke-width:0.1"
       id="path98" />
    <path
       d="m 224.569,114.221 -4.683,10.935 h 1.957 l 2.661,-6.548 c 0.287,-0.708 0.556,-1.442 0.805,-2.204 0.138,0.577 0.334,1.27 0.59,2.079 l 2.111,6.673 h 1.905 l -3.616,-10.935 h -1.73"
       style="fill:#17282f;fill-opacity:1;fill-rule:nonzero;stroke:none;stroke-width:0.1"
       id="path100" />
    <path
       d="m 238.794,119.709 c -0.66,-0.275 -1.658,-0.509 -2.994,-0.7 -0.757,-0.11 -1.289,-0.234 -1.599,-0.371 -0.309,-0.138 -0.543,-0.337 -0.702,-0.602 -0.159,-0.264 -0.23,-0.557 -0.215,-0.881 0.024,-0.494 0.23,-0.906 0.62,-1.235 0.39,-0.329 0.946,-0.494 1.666,-0.494 0.714,0 1.342,0.156 1.883,0.468 0.541,0.312 0.929,0.739 1.163,1.282 0.179,0.419 0.25,1.037 0.211,1.853 z m 0.352,-4.139 c -0.658,-0.584 -1.299,-0.996 -1.922,-1.236 -0.624,-0.24 -1.3,-0.359 -2.027,-0.359 -1.201,0 -2.139,0.292 -2.812,0.88 -0.674,0.586 -1.032,1.336 -1.076,2.25 -0.025,0.534 0.073,1.024 0.296,1.466 0.222,0.444 0.524,0.798 0.906,1.066 0.382,0.268 0.817,0.47 1.305,0.607 0.359,0.096 0.903,0.189 1.634,0.279 1.488,0.178 2.579,0.39 3.275,0.637 -0.006,0.255 -0.01,0.416 -0.014,0.485 -0.036,0.754 -0.236,1.287 -0.601,1.596 -0.494,0.418 -1.208,0.627 -2.141,0.627 -0.872,0 -1.508,-0.152 -1.908,-0.457 -0.401,-0.306 -0.683,-0.846 -0.845,-1.623 l -1.823,0.248 c 0.127,0.776 0.368,1.403 0.723,1.879 0.355,0.477 0.883,0.844 1.585,1.102 0.701,0.257 1.522,0.385 2.463,0.385 0.933,0 1.697,-0.109 2.291,-0.329 0.594,-0.219 1.036,-0.496 1.327,-0.828 0.29,-0.334 0.502,-0.755 0.636,-1.262 0.077,-0.316 0.135,-0.885 0.175,-1.709 l 0.118,-2.471 c 0.082,-1.723 0.174,-2.813 0.275,-3.269 0.1,-0.457 0.278,-0.894 0.531,-1.313 h -1.935 c -0.211,0.385 -0.356,0.834 -0.436,1.349"
       style="fill:#17282f;fill-opacity:1;fill-rule:nonzero;stroke:none;stroke-width:0.1"
       id="path102" />
    <path
       d="m 243.813,114.221 -0.523,10.935 h 1.853 l 0.524,-10.935 z m -0.62,12.963 -0.102,2.132 h 1.853 l 0.102,-2.132 h -1.853"
       style="fill:#17282f;fill-opacity:1;fill-rule:nonzero;stroke:none;stroke-width:0.1"
       id="path104" />
    <path
       d="m 248.446,114.221 -0.722,15.095 h 1.853 l 0.723,-15.095 h -1.854"
       style="fill:#17282f;fill-opacity:1;fill-rule:nonzero;stroke:none;stroke-width:0.1"
       id="path106" />
    <path
       d="m 259.892,119.709 c -0.661,-0.275 -1.659,-0.509 -2.995,-0.7 -0.756,-0.11 -1.29,-0.234 -1.599,-0.371 -0.309,-0.138 -0.543,-0.337 -0.702,-0.602 -0.158,-0.264 -0.231,-0.557 -0.215,-0.881 0.023,-0.494 0.23,-0.906 0.62,-1.235 0.39,-0.329 0.945,-0.494 1.666,-0.494 0.714,0 1.342,0.156 1.883,0.468 0.541,0.312 0.929,0.739 1.164,1.282 0.179,0.419 0.249,1.037 0.21,1.853 z m 0.351,-4.139 c -0.658,-0.584 -1.3,-0.996 -1.923,-1.236 -0.623,-0.24 -1.299,-0.359 -2.026,-0.359 -1.201,0 -2.139,0.292 -2.812,0.88 -0.673,0.586 -1.032,1.336 -1.076,2.25 -0.025,0.534 0.073,1.024 0.296,1.466 0.222,0.444 0.525,0.798 0.906,1.066 0.382,0.268 0.817,0.47 1.305,0.607 0.358,0.096 0.903,0.189 1.634,0.279 1.487,0.178 2.579,0.39 3.274,0.637 -0.006,0.255 -0.008,0.416 -0.012,0.485 -0.037,0.754 -0.237,1.287 -0.602,1.596 -0.494,0.418 -1.208,0.627 -2.142,0.627 -0.871,0 -1.507,-0.152 -1.908,-0.457 -0.4,-0.306 -0.681,-0.846 -0.844,-1.623 l -1.824,0.248 c 0.128,0.776 0.369,1.403 0.724,1.879 0.354,0.477 0.883,0.844 1.585,1.102 0.701,0.257 1.522,0.385 2.463,0.385 0.932,0 1.697,-0.109 2.291,-0.329 0.594,-0.219 1.036,-0.496 1.327,-0.828 0.29,-0.334 0.502,-0.755 0.637,-1.262 0.077,-0.316 0.134,-0.885 0.173,-1.709 l 0.119,-2.471 c 0.083,-1.723 0.174,-2.813 0.275,-3.269 0.101,-0.457 0.278,-0.894 0.531,-1.313 h -1.935 c -0.211,0.385 -0.356,0.834 -0.436,1.349"
       style="fill:#17282f;fill-opacity:1;fill-rule:nonzero;stroke:none;stroke-width:0.1"
       id="path108" />
    <path
       d="m 266.323,119.771 c 0.063,-1.312 0.286,-2.259 0.671,-2.842 0.63,-0.954 1.442,-1.431 2.437,-1.431 0.81,0 1.494,0.351 2.05,1.056 0.557,0.703 0.802,1.752 0.736,3.144 -0.069,1.428 -0.403,2.482 -1.001,3.161 -0.6,0.68 -1.3,1.02 -2.104,1.02 -0.809,0 -1.493,-0.353 -2.049,-1.056 -0.557,-0.703 -0.803,-1.721 -0.74,-3.052 z m 0.286,-5.55 h -1.718 l -0.723,15.095 h 1.853 l 0.257,-5.385 c 0.736,0.981 1.711,1.471 2.926,1.471 0.673,0 1.317,-0.135 1.93,-0.406 0.613,-0.271 1.126,-0.652 1.537,-1.142 0.411,-0.492 0.743,-1.084 0.996,-1.777 0.253,-0.693 0.398,-1.434 0.437,-2.223 0.089,-1.874 -0.305,-3.323 -1.183,-4.346 -0.877,-1.023 -1.965,-1.533 -3.262,-1.533 -1.291,0 -2.329,0.538 -3.115,1.616 l 0.065,-1.37"
       style="fill:#17282f;fill-opacity:1;fill-rule:nonzero;stroke:none;stroke-width:0.1"
       id="path110" />
    <path
       d="m 276.586,114.221 -0.722,15.095 h 1.854 l 0.721,-15.095 h -1.853"
       style="fill:#17282f;fill-opacity:1;fill-rule:nonzero;stroke:none;stroke-width:0.1"
       id="path112" />
    <path
       d="m 282.401,120.739 h 6.106 c -0.127,0.919 -0.394,1.61 -0.8,2.069 -0.624,0.714 -1.406,1.071 -2.347,1.071 -0.851,0 -1.553,-0.285 -2.106,-0.855 -0.553,-0.569 -0.837,-1.331 -0.853,-2.285 z m 6.228,-2.997 1.927,-0.237 c -0.249,-1.118 -0.767,-1.986 -1.554,-2.604 -0.787,-0.619 -1.815,-0.926 -3.086,-0.926 -1.599,0 -2.891,0.492 -3.875,1.476 -0.984,0.986 -1.519,2.366 -1.603,4.145 -0.088,1.84 0.316,3.266 1.215,4.283 0.899,1.016 2.103,1.523 3.614,1.523 1.462,0 2.679,-0.497 3.654,-1.492 0.975,-0.996 1.505,-2.395 1.591,-4.201 0.005,-0.11 0.009,-0.275 0.013,-0.495 h -8.154 c 0.126,-1.2 0.51,-2.12 1.15,-2.758 0.642,-0.64 1.419,-0.958 2.333,-0.958 0.679,0 1.25,0.179 1.714,0.535 0.463,0.358 0.817,0.927 1.061,1.709"
       style="fill:#17282f;fill-opacity:1;fill-rule:nonzero;stroke:none;stroke-width:0.1"
       id="path114" />
    <path
       d="m 293.438,108.101 h -18.776 c -0.369,0 -0.668,0.298 -0.668,0.668 0,0.369 0.299,0.668 0.668,0.668 h 18.776 c 0.37,0 0.668,-0.299 0.668,-0.668 0,-0.37 -0.298,-0.668 -0.668,-0.668"
       style="fill:#406fbf;fill-opacity:1;fill-rule:nonzero;stroke:none;stroke-width:0.1"
       id="path116" />
    <path
       d="m 266.885,108.101 h -83.868 c -0.369,0 -0.667,0.298 -0.667,0.668 0,0.369 0.298,0.668 0.667,0.668 h 83.868 c 0.369,0 0.668,-0.299 0.668,-0.668 0,-0.37 -0.299,-0.668 -0.668,-0.668"
       style="fill:#406fbf;fill-opacity:1;fill-rule:nonzero;stroke:none;stroke-width:0.1"
       id="path118" />
    <path
       d="m 214.279,208.376 c -0.197,4.354 -2.674,7.8 -5.531,7.696 -2.857,-0.102 -5.014,-3.714 -4.816,-8.067 0.197,-4.354 2.673,-7.8 5.53,-7.696 2.858,0.102 5.014,3.715 4.817,8.067"
       style="fill:#406fbf;fill-opacity:1;fill-rule:nonzero;stroke:none;stroke-width:0.1"
       id="path120" />
    <path
       d="m 274.65,209.736 c -0.198,4.354 -2.674,7.8 -5.531,7.697 -2.858,-0.103 -5.014,-3.715 -4.817,-8.069 0.198,-4.353 2.674,-7.798 5.531,-7.696 2.857,0.103 5.014,3.715 4.817,8.068"
       style="fill:#406fbf;fill-opacity:1;fill-rule:nonzero;stroke:none;stroke-width:0.1"
       id="path122" />
    <path
       d="m 229.349,190.533 c 15.829,5.652 28.06,-0.988 28.626,-1.304 0.62,-0.346 0.84,-1.122 0.494,-1.736 -0.348,-0.613 -1.132,-0.831 -1.753,-0.487 -0.142,0.078 -14.394,7.76 -31.406,-1.016 -0.632,-0.321 -1.409,-0.082 -1.739,0.543 -0.33,0.625 -0.086,1.396 0.544,1.721 1.78,0.918 3.528,1.67 5.234,2.279"
       style="fill:#406fbf;fill-opacity:1;fill-rule:nonzero;stroke:none;stroke-width:0.1"
       id="path124" />
    <path
       d="m 205.641,249.223 c 0.428,-0.011 0.86,-0.128 1.255,-0.362 1.226,-0.723 1.638,-2.293 0.92,-3.505 -7.189,-12.146 -19.04,-12.748 -19.541,-12.766 -1.421,-0.058 -2.623,1.043 -2.691,2.453 -0.067,1.407 1.021,2.593 2.433,2.655 0.39,0.02 9.625,0.585 15.361,10.278 0.486,0.821 1.366,1.268 2.263,1.247"
       style="fill:#406fbf;fill-opacity:1;fill-rule:nonzero;stroke:none;stroke-width:0.1"
       id="path126" />
    <path
       d="m 266.052,250.69 c 0.817,0.158 1.698,-0.081 2.332,-0.714 8.032,-8.031 17.136,-6.395 17.52,-6.322 1.388,0.267 2.747,-0.63 3.032,-2.009 0.285,-1.379 -0.597,-2.719 -1.983,-2.999 -0.505,-0.09 -12.145,-2.319 -22.209,7.743 -1.005,1.005 -1.004,2.622 0,3.612 0.372,0.367 0.829,0.596 1.308,0.689"
       style="fill:#406fbf;fill-opacity:1;fill-rule:nonzero;stroke:none;stroke-width:0.1"
       id="path128" />
    <path
       d="m 192.458,258.871 c -14.177,0.001 -28.832,1.981 -39.36,5.334 l 50.7,50.7 c -4.686,-20.107 0.266,-41.515 5.218,-55.036 -5.245,-0.678 -10.862,-0.998 -16.558,-0.998"
       style="fill:#c3c5c2;fill-opacity:1;fill-rule:nonzero;stroke:none;stroke-width:0.1"
       id="path134" />
    <path
       d="m 153.098,264.205 c -0.321,0.102 -0.638,0.206 -0.951,0.311 l 52.065,52.065 c -0.146,-0.558 -0.284,-1.116 -0.414,-1.676 l -50.7,-50.7"
       style="fill:#111d23;fill-opacity:1;fill-rule:nonzero;stroke:none;stroke-width:0.1"
       id="path136" />
    <path
       d="m 204.212,264.516 c -5.708,16.86 -3.381,39.779 0,52.065 l -52.065,-52.065 c 15.763,-2.869 33.369,-2.418 52.065,0"
       style="fill:#ffffff;fill-opacity:1;fill-rule:nonzero;stroke:none;stroke-width:0.1"
       id="path138" />
    <path
       d="m 153.994,265.101 c 13.832,-2.292 29.904,-2.239 49.034,0.164 -4.706,14.932 -3.643,34.702 -0.474,48.396 z m 21.962,-3.464 c -8.692,0 -16.64,0.667 -23.969,2.001 -0.327,0.059 -0.593,0.295 -0.693,0.612 -0.098,0.316 -0.013,0.662 0.221,0.897 l 52.066,52.065 c 0.287,0.287 0.73,0.344 1.08,0.141 0.35,-0.205 0.519,-0.619 0.411,-1.008 -3.147,-11.44 -5.748,-34.606 -0.015,-51.543 0.086,-0.253 0.054,-0.531 -0.088,-0.759 -0.141,-0.227 -0.377,-0.378 -0.643,-0.412 -10.277,-1.329 -19.694,-1.994 -28.37,-1.994"
       style="fill:#17282f;fill-opacity:1;fill-rule:nonzero;stroke:none;stroke-width:0.1"
       id="path140" />
    <path
       d="m 383.104,188.447 c -0.662,0 -1.267,0.445 -1.443,1.116 l -18.337,69.878 c -0.21,0.798 0.268,1.615 1.066,1.824 0.8,0.212 1.614,-0.268 1.823,-1.066 L 384.55,190.32 c 0.21,-0.797 -0.268,-1.614 -1.066,-1.823 -0.127,-0.034 -0.255,-0.05 -0.38,-0.05"
       style="fill:#17282f;fill-opacity:1;fill-rule:nonzero;stroke:none;stroke-width:0.1"
       id="path142" />
  </g>
</svg>
