<?xml version="1.0" encoding="UTF-8" standalone="no"?>
<!-- Created with Inkscape (http://www.inkscape.org/) -->

<svg
   version="1.1"
   id="svg2"
   width="370.44601"
   height="323.14847"
   viewBox="0 0 370.44602 323.14847"
   sodipodi:docname="242176-P3F2J5-332.eps"
   xmlns:inkscape="http://www.inkscape.org/namespaces/inkscape"
   xmlns:sodipodi="http://sodipodi.sourceforge.net/DTD/sodipodi-0.dtd"
   xmlns="http://www.w3.org/2000/svg"
   xmlns:svg="http://www.w3.org/2000/svg">
  <defs
     id="defs6" />
  <sodipodi:namedview
     id="namedview4"
     pagecolor="#ffffff"
     bordercolor="#000000"
     borderopacity="0.25"
     inkscape:showpageshadow="2"
     inkscape:pageopacity="0.0"
     inkscape:pagecheckerboard="0"
     inkscape:deskcolor="#d1d1d1"
     showgrid="false" />
  <g
     id="g10"
     inkscape:groupmode="layer"
     inkscape:label="Page 1"
     transform="matrix(1.3333333,0,0,-1.3333333,-151.52211,470.82584)">
    <path
       d="m 283.03313,303.675 c 0.314,-0.728 0.492,-1.529 0.492,-2.37 v -10.329 c 0,-3.3 -2.699,-6 -6.001,-6 h -56.936 c -0.353,0 -0.697,0.036 -1.032,0.095 0.923,-2.129 3.048,-3.629 5.507,-3.629 h 56.936 c 3.301,0 6,2.7 6,5.999 v 10.33 c 0,2.948 -2.156,5.411 -4.966,5.904"
       style="fill:#ebccb6;fill-opacity:1;fill-rule:nonzero;stroke:none;stroke-width:0.1"
       id="path30" />
    <path
       d="m 277.52413,284.976 c 3.302,0 6.001,2.7 6.001,6 v 10.329 c 0,0.841 -0.178,1.642 -0.492,2.37 -0.336,0.059 -0.68,0.096 -1.034,0.096 h -56.936 c -3.3,0 -6,-2.7 -6,-6 v -10.33 c 0,-0.84 0.177,-1.641 0.493,-2.37 0.335,-0.059 0.679,-0.095 1.032,-0.095 h 56.936"
       style="fill:#ecd5c6;fill-opacity:1;fill-rule:nonzero;stroke:none;stroke-width:0.1"
       id="path32" />
    <path
       d="m 390.13513,120.649 -131.865,228.399 c -2.823,4.891 -7.256,5.369 -10.407,1.468 0.355,-0.438 0.697,-0.918 1.015,-1.468 l 131.867,-228.399 c 3.14,-5.439 0.569,-9.891 -5.712,-9.891 h 9.391 c 6.282,0 8.853,4.452 5.711,9.891"
       style="fill:#ecb020;fill-opacity:1;fill-rule:nonzero;stroke:none;stroke-width:0.1"
       id="path236" />
    <path
       d="m 380.74513,120.649 -131.867,228.399 c -0.318,0.55 -0.66,1.03 -1.015,1.468 -0.355,-0.438 -0.697,-0.918 -1.015,-1.468 l -131.866,-228.399 c -3.141,-5.439 -0.571,-9.891 5.711,-9.891 h 254.34 c 6.281,0 8.852,4.452 5.712,9.891"
       style="fill:#ebc522;fill-opacity:1;fill-rule:nonzero;stroke:none;stroke-width:0.1"
       id="path238" />
    <path
       d="m 141.56013,129.9 110.999,192.254 110.995,-192.254 z"
       style="fill:#ee8e23;fill-opacity:1;fill-rule:nonzero;stroke:none;stroke-width:0.1"
       id="path240" />
    <path
       d="m 148.52313,133.922 104.036,180.192 104.033,-180.192 z"
       style="fill:#eaed56;fill-opacity:1;fill-rule:nonzero;stroke:none;stroke-width:0.1"
       id="path242" />
    <path
       d="m 148.52313,133.922 104.036,180.192 -0.001,-180.192 z"
       style="fill:#eff382;fill-opacity:1;fill-rule:nonzero;stroke:none;stroke-width:0.1"
       id="path244" />
    <path
       d="m 259.23213,194.553 c 1.367,0.139 11.089,22.178 11.089,54.076 l -0.073,0.014 c -8.788,1.736 -30.747,1.76 -33.852,0.337 l -0.164,-0.077 c 0,-19.713 10.679,-52.842 11.637,-54.075 0.547,-0.685 9.036,-0.549 11.363,-0.275"
       style="fill:#48100f;fill-opacity:1;fill-rule:nonzero;stroke:none;stroke-width:0.1"
       id="path246" />
    <path
       d="m 253.75413,180.317 c -6.519,0 -12.247,-4.432 -13.247,-11.685 -0.114,-0.817 -0.182,-1.664 -0.168,-2.552 0.274,-8.627 5.476,-13.964 14.921,-13.964 9.31,0 12.734,7.255 12.734,14.647 0,0.616 -0.067,1.222 -0.163,1.821 -1.02,6.456 -7.31,11.733 -14.077,11.733"
       style="fill:#48100f;fill-opacity:1;fill-rule:nonzero;stroke:none;stroke-width:0.1"
       id="path248" />
    <path
       d="m 381.30113,119.568 c -0.16,0.355 -0.346,0.716 -0.556,1.081 l -19.107,33.093 c 0.03,0.001 0.059,0.001 0.089,0.001 0.691,0 1.378,-0.326 1.83,-1.112 5.907,-10.28 11.814,-20.56 17.722,-30.84 0.418,-0.729 0.375,-1.56 0.022,-2.223"
       style="fill:#fbf6db;fill-opacity:1;fill-rule:nonzero;stroke:none;stroke-width:0.1"
       id="path250" />
    <path
       d="m 379.30613,118.353 c -34.521,0 -69.042,0 -103.563,0 -2.947,0 -2.947,4.568 0,4.568 33.204,0 66.411,0 99.615,0 -5.249,9.135 -10.497,18.269 -15.746,27.404 -0.999,1.738 0.501,3.356 2.026,3.417 l 19.107,-33.093 c 0.21,-0.365 0.396,-0.726 0.556,-1.081 -0.375,-0.702 -1.099,-1.215 -1.995,-1.215"
       style="fill:#fbf7db;fill-opacity:1;fill-rule:nonzero;stroke:none;stroke-width:0.1"
       id="path252" />
    <path
       d="m 188.68313,226.266 c -1.551,0 -3.129,1.648 -2.119,3.422 17.083,29.999 34.166,59.998 51.25,89.995 0.45,0.789 1.135,1.116 1.827,1.116 1.551,0 3.129,-1.648 2.119,-3.421 -17.085,-29.998 -34.167,-59.998 -51.251,-89.996 -0.449,-0.788 -1.135,-1.116 -1.826,-1.116"
       style="fill:#fbf7db;fill-opacity:1;fill-rule:nonzero;stroke:none;stroke-width:0.1"
       id="path254" />
  </g>
</svg>
