<svg xmlns="http://www.w3.org/2000/svg" xmlns:xlink="http://www.w3.org/1999/xlink" width="0" height="0" style="display:none;"><symbol viewBox="0 96 960 960" id="aru-icon-arrow-left"><path d="M480 896 160 576l320-320 42 42-248 248h526v60H274l248 248-42 42Z"></path></symbol><symbol viewBox="0 96 960 960" id="aru-icon-arrow-right"><path d="m304 974-56-57 343-343-343-343 56-57 400 400-400 400Z"></path></symbol><symbol viewBox="0 96 960 960" id="aru-icon-chevron-left"><path d="M400 976 0 576l400-400 56 57-343 343 343 343-56 57Z"></path></symbol><symbol viewBox="0 96 960 960" id="aru-icon-chevron-right"><path d="m480 896-42-43 247-247H160v-60h525L438 299l42-43 320 320-320 320Z"></path></symbol><symbol viewBox="0 96 960 960" id="aru-icon-close"><path d="m249 849-42-42 231-231-231-231 42-42 231 231 231-231 42 42-231 231 231 231-42 42-231-231-231 231Z"></path></symbol><symbol viewBox="0 96 960 960" id="aru-icon-trash"><path d="M261 936q-24.75 0-42.375-17.625T201 876V306h-41v-60h188v-30h264v30h188v60h-41v570q0 24-18 42t-42 18H261Zm438-630H261v570h438V306ZM367 790h60V391h-60v399Zm166 0h60V391h-60v399ZM261 306v570-570Z"></path></symbol></svg>